<?xml version="1.0" encoding="utf-8"?>
<!-- Generator: Adobe Illustrator 18.0.0, SVG Export Plug-In . SVG Version: 6.00 Build 0)  -->
<!DOCTYPE svg PUBLIC "-//W3C//DTD SVG 1.1//EN" "http://www.w3.org/Graphics/SVG/1.1/DTD/svg11.dtd">
<svg version="1.1" id="Layer_1" xmlns="http://www.w3.org/2000/svg" xmlns:xlink="http://www.w3.org/1999/xlink" x="0px" y="0px"
	 viewBox="0 0 1920 1080" enable-background="new 0 0 1920 1080" xml:space="preserve">
<g>
	<path fill="#FFFFFF" d="M458.8,273.5l-12.9,81.7h-63.1l-20.8,129.7h53l-13.6,84.5h-53l-24.4,154.1h65.2l-13.6,83.1H223.1
		l85.3-533.1H458.8z"/>
	<path fill="#FFFFFF" d="M473.8,273.5h98.9l-24.4,258.7l55.2-258.7h100.3l-84.6,533.1h-74.5l48-298.1L519,806.5h-30.8L509,508.5
		l-47.3,298.1h-73.1L473.8,273.5z"/>
	<path fill="#FFFFFF" d="M751.9,710.5h-30.1l-20.1,96H625l127.5-533.1h111.8l-38,533.1h-84.6L751.9,710.5z M779.8,430.4l-41.6,202.1
		h21.5L779.8,430.4z"/>
	<path fill="#FFFFFF" d="M832.1,806.5l85.3-533.1h130.4c33.7,0,58,21.5,51.6,65.2L1079.3,464c-5.7,33.7-20.8,49.4-40.1,55.9
		c13.6,6.5,28.7,22.9,23.6,54.5l-33,206.4c-2.1,13.6-1.4,17.9,0.7,23.6l-0.7,2.1h-86c-2.9-3.6-5-12.2-2.9-24.4l31.5-197.8
		c1.4-7.9-1.4-12.2-8.6-12.2h-6.4l-37.3,234.3H832.1z M969.7,496.3h7.9c6.4,0,10-4.3,10.7-12.9l20.8-129c1.4-9.3-1.4-13.6-7.9-13.6
		h-6.4L969.7,496.3z"/>
	<path fill="#FFFFFF" d="M1257,707.7c-10.7,68.1-40.8,103.9-101,103.9h-13.6c-68.8,0-97.4-40.8-86.7-109.6l52.3-325.3
		c11.5-66.6,34.4-108.2,101.7-108.2h13.6c70.9,0,97.4,44.4,86.7,108.2L1257,707.7z M1221.2,363c1.4-10-1.4-15-9.3-15
		c-7.9,0-8.6,6.4-10.7,15l-56.6,354c-1.4,8.6,1.4,12.9,8.6,12.9c6.4,0,10-4.3,11.5-13.6L1221.2,363z"/>
	<path fill="#FFFFFF" d="M1348.7,811.6c-62.3,0-89.6-33.7-81-88.1l21.5-134h86l-21.5,134c-1.4,9.3,1.4,13.6,8.6,13.6
		c7.9,0,9.3-5,11.5-15.8l16.5-102.5c2.9-17.9-0.7-25.1-12.2-39.4l-29.4-38c-29.4-37.3-38.7-65.9-33-103.2l14.3-90.3
		c7.9-49.4,32.2-79.5,94.6-79.5h20.1c60.9,0,84.6,31.5,78.1,72.4l-19.3,120.4h-83.8l17.9-111.8c1.4-7.9-1.4-12.2-7.9-12.2
		c-5,0-8.6,4.3-10,12.2l-14.3,89.6c-2.2,13.6,0,20.1,9.3,32.2l30.1,38.7c34.4,43.7,44.4,65.9,38.7,108.2L1466.9,722
		c-9.3,57.3-35.1,89.6-97.4,89.6H1348.7z"/>
	<path fill="#FFFFFF" d="M1584.4,710.5h-30.1l-20.1,96h-76.7l127.5-533.1h111.8l-38,533.1h-84.6L1584.4,710.5z M1612.4,430.4
		l-41.6,202.1h21.5L1612.4,430.4z"/>
</g>
</svg>
